<svg width="583.6774780273437px" height="130.94638671874998px" xmlns="http://www.w3.org/2000/svg" viewBox="-41.83873901367184 9.526806640625011 583.6774780273437 130.94638671874998" style="background-color: rgba(0, 0, 0, 0);" preserveAspectRatio="xMidYMid"><defs><filter id="editing-metal-beveled"><feGaussianBlur stdDeviation="4" in="SourceAlpha" result="blur"></feGaussianBlur><feSpecularLighting surfaceScale="5" specularConstant="0.8" specularExponent="7.5" lighting-color="#fff" in="blur" result="specular"><fePointLight x="-250" y="-50" z="300"></fePointLight></feSpecularLighting><feComposite operator="in" in="specular" in2="SourceAlpha" result="comp"></feComposite><feComposite in="SourceGraphic" in2="comp" operator="arithmetic" k1="0" k2="1" k3="1" k4="0"></feComposite></filter></defs><g filter="url(#editing-metal-beveled)"><g transform="translate(44.84000015258789, 99.35281372070312)"><path d="M49.44-11.41L49.44-9.84L49.44-9.84Q49.44-8.34 48.92-6.63L48.92-6.63L48.92-6.63Q48.41-4.91 47.23-3.44L47.23-3.44L47.23-3.44Q46.06-1.97 44.19-0.98L44.19-0.98L44.19-0.98Q42.31 0 39.59 0L39.59 0L8.75 0L8.75 0Q7.88 0 7.13-0.31L7.13-0.31L7.13-0.31Q6.38-0.63 5.83-1.17L5.83-1.17L5.83-1.17Q5.28-1.72 4.97-2.47L4.97-2.47L4.97-2.47Q4.66-3.22 4.66-4.09L4.66-4.09L4.66-40.72L4.66-40.72Q4.66-41.56 4.97-42.31L4.97-42.31L4.97-42.31Q5.28-43.06 5.83-43.63L5.83-43.63L5.83-43.63Q6.38-44.19 7.13-44.50L7.13-44.50L7.13-44.50Q7.88-44.81 8.75-44.81L8.75-44.81L35.94-44.81L35.94-44.81Q37.44-44.81 39.16-44.28L39.16-44.28L39.16-44.28Q40.88-43.75 42.36-42.58L42.36-42.58L42.36-42.58Q43.84-41.41 44.83-39.53L44.83-39.53L44.83-39.53Q45.81-37.66 45.81-34.94L45.81-34.94L45.81-33.41L45.81-33.41Q45.81-31.25 45.09-28.77L45.09-28.77L45.09-28.77Q44.38-26.28 42.78-24.06L42.78-24.06L42.78-24.06Q44.16-23.22 45.36-22.03L45.36-22.03L45.36-22.03Q46.56-20.84 47.47-19.28L47.47-19.28L47.47-19.28Q48.38-17.72 48.91-15.75L48.91-15.75L48.91-15.75Q49.44-13.78 49.44-11.41L49.44-11.41ZM41.31-9.91L41.31-11.41L41.31-11.41Q41.31-13 40.81-14.27L40.81-14.27L40.81-14.27Q40.31-15.53 39.41-16.44L39.41-16.44L39.41-16.44Q38.50-17.34 37.22-17.83L37.22-17.83L37.22-17.83Q35.94-18.31 34.34-18.31L34.34-18.31L16.03-18.31L16.03-26.50L30.69-26.50L30.69-26.50Q32.28-26.50 33.56-26.98L33.56-26.98L33.56-26.98Q34.84-27.47 35.75-28.38L35.75-28.38L35.75-28.38Q36.66-29.28 37.14-30.55L37.14-30.55L37.14-30.55Q37.63-31.81 37.63-33.41L37.63-33.41L37.63-34.94L37.63-34.94Q37.63-36.69 35.94-36.69L35.94-36.69L12.78-36.69L12.78-8.13L39.59-8.13L39.59-8.13Q39.81-8.13 40.13-8.16L40.13-8.16L40.13-8.16Q40.44-8.19 40.69-8.34L40.69-8.34L40.69-8.34Q40.94-8.50 41.13-8.88L41.13-8.88L41.13-8.88Q41.31-9.25 41.31-9.91L41.31-9.91ZM108.66-41.34L108.66 0L100.47 0L100.47-26.69L86.06-1.34L86.06-1.34Q85.53-0.38 84.58 0.13L84.58 0.13L84.58 0.13Q83.63 0.63 82.53 0.63L82.53 0.63L82.53 0.63Q81.47 0.63 80.55 0.13L80.55 0.13L80.55 0.13Q79.63-0.38 79.09-1.34L79.09-1.34L64.63-26.69L64.63 0L56.50 0L56.50-41.34L56.50-41.34Q56.50-42.75 57.33-43.84L57.33-43.84L57.33-43.84Q58.16-44.94 59.50-45.31L59.50-45.31L59.50-45.31Q60.16-45.47 60.81-45.42L60.81-45.42L60.81-45.42Q61.47-45.38 62.08-45.14L62.08-45.14L62.08-45.14Q62.69-44.91 63.19-44.48L63.19-44.48L63.19-44.48Q63.69-44.06 64.03-43.47L64.03-43.47L82.53-11.31L101.03-43.47L101.03-43.47Q101.75-44.66 103.02-45.16L103.02-45.16L103.02-45.16Q104.28-45.66 105.66-45.31L105.66-45.31L105.66-45.31Q106.97-44.94 107.81-43.84L107.81-43.84L107.81-43.84Q108.66-42.75 108.66-41.34L108.66-41.34ZM126.28-44.81L126.28 0L118.16 0L118.16-44.81L126.28-44.81ZM176.28-44.81L176.28-36.69L158.38-36.69L158.38 0L150.25 0L150.25-36.69L132.31-36.69L132.31-44.81L176.28-44.81ZM207.16-33.78L207.16-25.66L188.88-25.66L188.88-25.66Q187.22-25.66 186.38-24.83L186.38-24.83L186.38-24.83Q185.53-24 185.53-22.41L185.53-22.41L185.53 0L177.41 0L177.41-22.41L177.41-22.41Q177.41-24.50 177.94-26.16L177.94-26.16L177.94-26.16Q178.47-27.81 179.36-29.08L179.36-29.08L179.36-29.08Q180.25-30.34 181.41-31.23L181.41-31.23L181.41-31.23Q182.56-32.13 183.83-32.69L183.83-32.69L183.83-32.69Q185.09-33.25 186.39-33.52L186.39-33.52L186.39-33.52Q187.69-33.78 188.81-33.78L188.81-33.78L207.16-33.78ZM244.75-22.59L244.75-11.19L244.75-11.19Q244.75-9.50 244.16-7.55L244.16-7.55L244.16-7.55Q243.56-5.59 242.23-3.92L242.23-3.92L242.23-3.92Q240.91-2.25 238.77-1.13L238.77-1.13L238.77-1.13Q236.63 0 233.56 0L233.56 0L218.91 0L218.91 0Q217.22 0 215.27-0.59L215.27-0.59L215.27-0.59Q213.31-1.19 211.64-2.52L211.64-2.52L211.64-2.52Q209.97-3.84 208.84-5.98L208.84-5.98L208.84-5.98Q207.72-8.13 207.72-11.19L207.72-11.19L207.72-11.19Q207.72-12.88 208.31-14.84L208.31-14.84L208.31-14.84Q208.91-16.81 210.23-18.48L210.23-18.48L210.23-18.48Q211.56-20.16 213.70-21.28L213.70-21.28L213.70-21.28Q215.84-22.41 218.91-22.41L218.91-22.41L233.56-22.41L233.56-14.66L218.91-14.66L218.91-14.66Q217.25-14.66 216.34-13.64L216.34-13.64L216.34-13.64Q215.44-12.63 215.44-11.13L215.44-11.13L215.44-11.13Q215.44-9.53 216.48-8.64L216.48-8.64L216.48-8.64Q217.53-7.75 218.97-7.75L218.97-7.75L233.56-7.75L233.56-7.75Q235.22-7.75 236.13-8.75L236.13-8.75L236.13-8.75Q237.03-9.75 237.03-11.25L237.03-11.25L237.03-22.59L237.03-22.59Q237.03-24.19 236.05-25.13L236.05-25.13L236.05-25.13Q235.06-26.06 233.56-26.06L233.56-26.06L215.72-26.06L215.72-33.78L233.56-33.78L233.56-33.78Q235.25-33.78 237.20-33.19L237.20-33.19L237.20-33.19Q239.16-32.59 240.83-31.27L240.83-31.27L240.83-31.27Q242.50-29.94 243.63-27.80L243.63-27.80L243.63-27.80Q244.75-25.66 244.75-22.59L244.75-22.59ZM284.41-8.13L284.41 0L262.38 0L262.38 0Q260.69 0 258.69-0.59L258.69-0.59L258.69-0.59Q256.69-1.19 254.98-2.55L254.98-2.55L254.98-2.55Q253.28-3.91 252.14-6.08L252.14-6.08L252.14-6.08Q251-8.25 251-11.41L251-11.41L251-22.41L251-22.41Q251-23.56 251.27-24.84L251.27-24.84L251.27-24.84Q251.53-26.13 252.09-27.39L252.09-27.39L252.09-27.39Q252.66-28.66 253.55-29.81L253.55-29.81L253.55-29.81Q254.44-30.97 255.70-31.84L255.70-31.84L255.70-31.84Q256.97-32.72 258.63-33.25L258.63-33.25L258.63-33.25Q260.28-33.78 262.38-33.78L262.38-33.78L284.41-33.78L284.41-25.66L262.38-25.66L262.38-25.66Q260.78-25.66 259.95-24.84L259.95-24.84L259.95-24.84Q259.13-24.03 259.13-22.34L259.13-22.34L259.13-11.41L259.13-11.41Q259.13-9.81 259.97-8.97L259.97-8.97L259.97-8.97Q260.81-8.13 262.44-8.13L262.44-8.13L284.41-8.13ZM311.69-18.44L330.81 0L319.09 0L302.72-15.81L302.72-15.81Q301.34-17.06 301.44-18.94L301.44-18.94L301.44-18.94Q301.50-19.81 301.89-20.58L301.89-20.58L301.89-20.58Q302.28-21.34 302.97-21.88L302.97-21.88L317.81-33.84L330.81-33.84L311.69-18.44ZM299.38-48.06L299.38 0L291.25 0L291.25-48.06L299.38-48.06ZM370.63-22.59L370.63-22.59L370.63-22.59Q370.63-20.91 370.03-18.95L370.03-18.95L370.03-18.95Q369.44-17 368.11-15.33L368.11-15.33L368.11-15.33Q366.78-13.66 364.64-12.53L364.64-12.53L364.64-12.53Q362.50-11.41 359.44-11.41L359.44-11.41L344.78-11.41L344.78-19.13L359.44-19.13L359.44-19.13Q361.09-19.13 362-20.14L362-20.14L362-20.14Q362.91-21.16 362.91-22.66L362.91-22.66L362.91-22.66Q362.91-24.25 361.89-25.16L361.89-25.16L361.89-25.16Q360.88-26.06 359.44-26.06L359.44-26.06L344.78-26.06L344.78-26.06Q343.13-26.06 342.22-25.05L342.22-25.05L342.22-25.05Q341.31-24.03 341.31-22.53L341.31-22.53L341.31-11.19L341.31-11.19Q341.31-9.56 342.33-8.66L342.33-8.66L342.33-8.66Q343.34-7.75 344.84-7.75L344.84-7.75L359.44-7.75L359.44 0L344.78 0L344.78 0Q343.09 0 341.14-0.59L341.14-0.59L341.14-0.59Q339.19-1.19 337.52-2.52L337.52-2.52L337.52-2.52Q335.84-3.84 334.72-5.98L334.72-5.98L334.72-5.98Q333.59-8.13 333.59-11.19L333.59-11.19L333.59-22.59L333.59-22.59Q333.59-24.28 334.19-26.23L334.19-26.23L334.19-26.23Q334.78-28.19 336.11-29.86L336.11-29.86L336.11-29.86Q337.44-31.53 339.58-32.66L339.58-32.66L339.58-32.66Q341.72-33.78 344.78-33.78L344.78-33.78L359.44-33.78L359.44-33.78Q361.13-33.78 363.08-33.19L363.08-33.19L363.08-33.19Q365.03-32.59 366.70-31.27L366.70-31.27L366.70-31.27Q368.38-29.94 369.50-27.80L369.50-27.80L369.50-27.80Q370.63-25.66 370.63-22.59ZM405.66-33.78L405.66-25.66L387.38-25.66L387.38-25.66Q385.72-25.66 384.88-24.83L384.88-24.83L384.88-24.83Q384.03-24 384.03-22.41L384.03-22.41L384.03 0L375.91 0L375.91-22.41L375.91-22.41Q375.91-24.50 376.44-26.16L376.44-26.16L376.44-26.16Q376.97-27.81 377.86-29.08L377.86-29.08L377.86-29.08Q378.75-30.34 379.91-31.23L379.91-31.23L379.91-31.23Q381.06-32.13 382.33-32.69L382.33-32.69L382.33-32.69Q383.59-33.25 384.89-33.52L384.89-33.52L384.89-33.52Q386.19-33.78 387.31-33.78L387.31-33.78L405.66-33.78Z" fill="#444"></path></g></g><style>text {
  font-size: 64px;
  font-family: Arial Black;
  dominant-baseline: central;
  text-anchor: middle;
}</style></svg>